<svg width="50" height="50" viewBox="0 0 50 50" fill="none" xmlns="http://www.w3.org/2000/svg">
<path d="M3.70996 35.0142L0.483463 30.8546L1.41213 25.6731L0.154831 20.5612L3.10963 16.2082L4.03831 11.0267L8.50869 8.2543L11.463 3.90029L16.6759 3.18763L21.1448 0.414766L26.1979 1.88386L31.4094 1.17069L35.4296 4.5693L40.4832 6.03937L42.7753 10.779L46.7955 14.1776L46.9635 19.4392L49.2561 24.1798L47.2702 29.053L47.4381 34.3146L43.6433 37.957L41.6579 42.8312L36.7095 44.6126L32.9137 48.2554L27.6667 47.8689L22.7174 49.6508L18.0795 47.1625L12.8326 46.776L9.6056 42.6154L4.96774 40.1271L3.70996 35.0142Z" fill="#F7BD83"/>
</svg>
