<svg width="152" height="146" viewBox="0 0 152 146" fill="none" xmlns="http://www.w3.org/2000/svg">
<g clip-path="url(#clip0_74_51)">
<path d="M131.888 123.313C144.858 109.685 152 91.8174 152 73C152 48.7244 140.156 26.377 120.192 12.7304L123.087 7.25415L104.643 7.94256L114.459 23.569L117.284 18.2273C135.21 30.7585 145.829 51.0148 145.829 73C145.829 90.2283 139.291 106.585 127.416 119.061L131.886 123.313H131.888Z" fill="#045384"/>
<path d="M78.9843 6.16991C84.9528 6.16991 90.8722 6.95667 96.5766 8.50948L98.1976 2.55705C91.9649 0.861905 85.5018 0.00268555 78.9843 0.00268555C60.017 0.00268555 42.0466 7.23876 28.3798 20.3781C15.3473 32.9066 7.52737 49.5424 6.18088 67.454L0 67.6817L9.81121 83.3133L18.4468 67.0063L12.3877 67.2288C15.3163 32.7565 44.0171 6.16991 78.9843 6.16991Z" fill="#045384"/>
<path d="M33.4265 130.05C46.4822 140.485 62.2361 146 78.9843 146C89.9219 146 100.795 143.521 110.59 138.818L113.892 144.059L122.496 127.734L104.052 128.443L107.273 133.557C98.4746 137.664 88.7566 139.83 78.9817 139.83C47.909 139.83 21.1735 118.759 13.9646 88.5876L7.96239 90.0214C11.7092 105.707 20.7514 119.923 33.4239 130.05H33.4265Z" fill="#045384"/>
</g>
<defs>
<clipPath id="clip0_74_51">
<rect width="152" height="146" fill="white"/>
</clipPath>
</defs>
</svg>
