<svg width="224" height="224" viewBox="0 0 224 224" fill="none" xmlns="http://www.w3.org/2000/svg">
<g clip-path="url(#clip0_60_2)">
<path d="M150.908 44.9768V43.9394L152.637 43.8686C152.755 43.8568 152.862 43.8097 152.945 43.7272C153.028 43.6446 153.075 43.5503 153.075 43.4206V33.3996L150.079 33.824V32.7629L154.425 31.1949H155.905V43.4206C155.905 43.5503 155.952 43.6446 156.035 43.7272C156.118 43.8097 156.225 43.8568 156.355 43.8686L157.941 43.9394V44.9768H150.908Z" fill="black"/>
<path d="M178.213 76.8792V75.2168C178.485 74.9928 178.828 74.7217 179.266 74.4152C179.704 74.0968 180.166 73.7432 180.664 73.3541C181.161 72.9651 181.658 72.5288 182.155 72.0691C182.653 71.6093 183.115 71.1141 183.517 70.5954C183.92 70.0766 184.251 69.5461 184.512 68.9802C184.772 68.4261 184.891 67.8484 184.891 67.259C184.891 66.8581 184.831 66.4926 184.713 66.1507C184.595 65.8088 184.429 65.5141 184.216 65.2547C184.003 65.0072 183.742 64.8067 183.434 64.6653C183.126 64.5238 182.783 64.4531 182.404 64.4531C182.262 64.4531 182.155 64.4531 182.061 64.4766C181.966 64.4884 181.883 64.512 181.8 64.5356C181.717 64.5592 181.634 64.5827 181.552 64.6181C181.469 64.6535 181.374 64.6888 181.267 64.7124V67.4122C181.125 67.483 180.971 67.5537 180.829 67.6126C180.699 67.6598 180.557 67.707 180.391 67.7423C180.225 67.7777 180.071 67.8013 179.906 67.8013C179.408 67.8013 179.041 67.6716 178.781 67.4004C178.52 67.1293 178.39 66.7756 178.39 66.3276C178.39 65.915 178.473 65.5377 178.627 65.2194C178.793 64.9011 179.006 64.6181 179.266 64.3823C179.539 64.1465 179.847 63.9461 180.19 63.7811C180.533 63.616 180.888 63.4981 181.256 63.392C181.623 63.2859 181.978 63.227 182.333 63.1798C182.688 63.1326 183.008 63.1208 183.304 63.1208C183.943 63.1208 184.535 63.2152 185.092 63.4038C185.648 63.5924 186.134 63.8636 186.548 64.2055C186.963 64.5474 187.282 64.9718 187.519 65.4552C187.756 65.9385 187.874 66.4926 187.874 67.0939C187.874 67.8131 187.697 68.4851 187.353 69.1335C186.998 69.7701 186.513 70.395 185.897 71.008C185.269 71.6211 184.535 72.2341 183.683 72.8354C182.83 73.4366 181.907 74.0733 180.912 74.7217H186.631L187.01 72.9651H188.301V76.891H178.236L178.213 76.8792Z" fill="black"/>
<path d="M201.61 114.099C201.61 114.535 201.538 114.936 201.385 115.313C201.231 115.69 201.029 116.02 200.769 116.339C200.508 116.645 200.189 116.928 199.833 117.164C199.466 117.4 199.076 117.612 198.649 117.765C198.223 117.93 197.761 118.048 197.288 118.142C196.802 118.225 196.317 118.272 195.819 118.272C195.168 118.272 194.576 118.201 194.055 118.048C193.534 117.895 193.084 117.694 192.717 117.447C192.35 117.199 192.066 116.916 191.865 116.598C191.663 116.28 191.569 115.961 191.569 115.619C191.569 115.336 191.616 115.112 191.711 114.936C191.806 114.759 191.924 114.617 192.078 114.511C192.22 114.405 192.386 114.334 192.563 114.299C192.741 114.264 192.907 114.24 193.061 114.24C193.238 114.24 193.392 114.264 193.546 114.299C193.688 114.334 193.818 114.381 193.925 114.429L194.564 116.692C194.789 116.751 195.014 116.822 195.263 116.904C195.5 116.987 195.76 117.034 196.044 117.034C196.388 117.034 196.719 116.963 197.039 116.81C197.359 116.657 197.631 116.468 197.88 116.209C198.117 115.961 198.318 115.667 198.46 115.313C198.602 114.971 198.673 114.605 198.673 114.216C198.673 113.898 198.614 113.603 198.495 113.297C198.377 113.002 198.199 112.743 197.963 112.519C197.726 112.295 197.43 112.118 197.086 111.976C196.731 111.835 196.329 111.776 195.855 111.776C195.701 111.776 195.547 111.776 195.381 111.788C195.216 111.788 195.062 111.811 194.931 111.823C194.766 111.847 194.612 111.859 194.446 111.87V110.373C194.553 110.385 194.659 110.397 194.742 110.397H195.002C195.381 110.397 195.76 110.361 196.139 110.279C196.518 110.208 196.861 110.067 197.169 109.878C197.477 109.689 197.726 109.442 197.915 109.123C198.105 108.805 198.199 108.404 198.199 107.921C198.199 107.603 198.128 107.296 197.998 107.001C197.868 106.707 197.69 106.459 197.453 106.235C197.228 106.011 196.956 105.834 196.636 105.704C196.317 105.575 195.985 105.504 195.618 105.504C195.523 105.504 195.405 105.516 195.287 105.539C195.168 105.563 195.05 105.598 194.943 105.622C194.813 105.657 194.683 105.693 194.553 105.74V108.204C194.363 108.322 194.185 108.392 193.996 108.428C193.807 108.463 193.629 108.475 193.475 108.475C193.262 108.475 193.061 108.451 192.871 108.392C192.682 108.333 192.516 108.251 192.374 108.133C192.232 108.015 192.113 107.862 192.03 107.685C191.948 107.508 191.9 107.296 191.9 107.048C191.9 106.636 192.019 106.247 192.279 105.893C192.528 105.539 192.871 105.233 193.286 104.973C193.712 104.714 194.209 104.514 194.766 104.372C195.334 104.231 195.926 104.16 196.565 104.16C197.11 104.16 197.667 104.231 198.211 104.372C198.756 104.514 199.241 104.738 199.679 105.021C200.118 105.315 200.461 105.681 200.733 106.117C201.006 106.553 201.136 107.072 201.136 107.673C201.136 108.098 201.065 108.475 200.923 108.793C200.781 109.112 200.591 109.395 200.378 109.619C200.153 109.854 199.904 110.043 199.632 110.196C199.36 110.349 199.099 110.479 198.851 110.573C198.602 110.668 198.365 110.739 198.164 110.786C197.974 110.821 197.844 110.845 197.749 110.856C197.832 110.856 197.974 110.868 198.188 110.88C198.413 110.904 198.673 110.951 198.969 111.021C199.265 111.092 199.561 111.21 199.869 111.352C200.177 111.493 200.461 111.693 200.733 111.929C200.994 112.165 201.207 112.472 201.373 112.825C201.538 113.179 201.621 113.603 201.621 114.087L201.61 114.099Z" fill="black"/>
<path d="M186.868 154.348V158.439H184.299V154.371H178.13V152.65L184.689 144.35H186.868V152.733H188.514V154.36H186.868V154.348ZM184.299 147.451L180.071 152.721H184.299V147.451Z" fill="black"/>
<path d="M157.989 184.022C157.989 184.776 157.823 185.46 157.48 186.061C157.148 186.663 156.698 187.17 156.13 187.594C155.573 188.019 154.922 188.337 154.2 188.561C153.478 188.785 152.732 188.903 151.962 188.903C151.453 188.903 150.944 188.844 150.446 188.738C149.949 188.632 149.499 188.467 149.108 188.243C148.718 188.019 148.398 187.747 148.149 187.417C147.912 187.087 147.782 186.71 147.782 186.274C147.782 186.12 147.818 185.967 147.877 185.814C147.936 185.661 148.031 185.519 148.149 185.389C148.268 185.26 148.422 185.154 148.611 185.083C148.789 185 149.002 184.965 149.25 184.965C149.381 184.965 149.523 184.977 149.665 185.012C149.807 185.048 149.973 185.095 150.162 185.154L150.802 187.547C150.967 187.571 151.121 187.594 151.252 187.629C151.37 187.653 151.488 187.665 151.595 187.688C151.713 187.7 151.796 187.712 151.844 187.712C152.424 187.712 152.921 187.606 153.335 187.382C153.75 187.158 154.081 186.887 154.342 186.58C154.602 186.262 154.792 185.932 154.91 185.602C155.029 185.26 155.088 184.977 155.088 184.741C155.088 184.293 154.993 183.892 154.804 183.527C154.614 183.173 154.366 182.867 154.034 182.619C153.714 182.371 153.335 182.183 152.897 182.041C152.459 181.912 151.997 181.841 151.512 181.841C151.169 181.841 150.813 181.864 150.47 181.9C150.127 181.935 149.807 181.971 149.511 182.018C149.179 182.065 148.86 182.112 148.552 182.171V175.156H157.195V177.373H150.257V180.603C150.541 180.52 150.837 180.438 151.145 180.367C151.405 180.308 151.701 180.249 152.033 180.202C152.365 180.155 152.696 180.12 153.039 180.12C153.762 180.12 154.425 180.214 155.029 180.403C155.633 180.591 156.154 180.862 156.592 181.204C157.03 181.546 157.373 181.959 157.61 182.442C157.847 182.925 157.977 183.456 157.977 184.034L157.989 184.022Z" fill="black"/>
<path d="M117.186 196.495C117.186 197.273 117.056 197.981 116.784 198.617C116.523 199.254 116.156 199.796 115.694 200.244C115.232 200.692 114.7 201.046 114.096 201.282C113.492 201.529 112.853 201.647 112.178 201.647C111.337 201.647 110.579 201.517 109.904 201.246C109.241 200.975 108.673 200.586 108.211 200.067C107.749 199.549 107.406 198.9 107.157 198.134C106.92 197.368 106.79 196.483 106.79 195.493C106.79 194.184 107.003 193.029 107.418 192.027C107.832 191.025 108.424 190.2 109.182 189.528C109.94 188.867 110.851 188.36 111.917 188.03C112.983 187.7 114.167 187.535 115.457 187.547V189.115L114.569 189.021C113.847 189.068 113.208 189.209 112.651 189.421C112.107 189.645 111.633 189.94 111.254 190.317C110.875 190.695 110.567 191.143 110.33 191.661C110.094 192.18 109.928 192.77 109.833 193.418C110.106 193.241 110.413 193.064 110.745 192.923C111.029 192.805 111.361 192.687 111.728 192.581C112.107 192.475 112.509 192.428 112.947 192.428C113.658 192.428 114.273 192.546 114.794 192.793C115.327 193.041 115.765 193.359 116.109 193.748C116.464 194.137 116.724 194.573 116.902 195.057C117.08 195.54 117.162 196.024 117.162 196.495H117.186ZM114.309 197.096C114.309 196.66 114.262 196.259 114.155 195.894C114.048 195.528 113.895 195.21 113.67 194.951C113.456 194.691 113.184 194.491 112.841 194.349C112.509 194.208 112.118 194.137 111.668 194.137C111.384 194.137 111.112 194.161 110.875 194.208C110.638 194.255 110.437 194.302 110.259 194.349C110.058 194.42 109.881 194.479 109.715 194.55C109.691 194.774 109.679 194.998 109.667 195.198C109.667 195.399 109.667 195.587 109.667 195.729C109.667 195.917 109.679 196.083 109.691 196.224C109.691 196.684 109.738 197.167 109.833 197.651C109.928 198.134 110.07 198.582 110.271 198.971C110.473 199.372 110.733 199.69 111.041 199.949C111.349 200.209 111.74 200.327 112.178 200.327C112.533 200.327 112.841 200.232 113.101 200.056C113.362 199.879 113.587 199.631 113.764 199.336C113.942 199.042 114.072 198.688 114.167 198.299C114.25 197.91 114.297 197.497 114.297 197.073L114.309 197.096Z" fill="black"/>
<path d="M68.6754 190.011V190.612H66.1059L72.6656 179.247H66.8519L66.544 181.11H65.135V176.842H75.46V178.257L68.6754 189.999V190.011Z" fill="black"/>
<path d="M45.8941 156.352C45.8941 157.036 45.7402 157.625 45.4441 158.132C45.1481 158.639 44.7456 159.052 44.2601 159.382C43.7628 159.712 43.1944 159.96 42.555 160.125C41.9157 160.29 41.2644 160.372 40.5895 160.372C39.8672 160.372 39.1923 160.278 38.5648 160.077C37.9491 159.877 37.4162 159.606 36.9663 159.252C36.5164 158.899 36.1611 158.486 35.9125 158.003C35.6638 157.519 35.5336 157 35.5336 156.423C35.5336 155.845 35.6283 155.432 35.8296 155.067C36.0309 154.701 36.2677 154.419 36.5519 154.183C36.836 153.947 37.1439 153.77 37.4636 153.64C37.7833 153.511 38.0793 153.416 38.328 153.334C38.1267 153.251 37.8899 153.133 37.6294 152.968C37.3689 152.803 37.1202 152.591 36.8953 152.344C36.6584 152.096 36.469 151.801 36.3151 151.459C36.1611 151.129 36.0782 150.752 36.0782 150.328C36.0782 149.573 36.2203 148.936 36.5164 148.418C36.8124 147.899 37.1913 147.486 37.6649 147.168C38.1385 146.85 38.6713 146.626 39.2515 146.484C39.8436 146.343 40.4237 146.284 41.0158 146.284C41.5486 146.284 42.0696 146.355 42.5906 146.496C43.1116 146.637 43.5733 146.861 43.9878 147.156C44.4022 147.451 44.7337 147.816 44.9942 148.253C45.2547 148.689 45.3731 149.208 45.3731 149.809C45.3731 150.28 45.2902 150.693 45.1245 151.023C44.9587 151.365 44.7574 151.648 44.5087 151.884C44.2601 152.12 43.9878 152.32 43.7036 152.485C43.4076 152.65 43.1352 152.78 42.8866 152.898C42.9813 152.933 43.1116 152.98 43.301 153.039C43.4786 153.098 43.6917 153.192 43.9167 153.299C44.1417 153.416 44.3667 153.558 44.6035 153.723C44.8403 153.888 45.0534 154.1 45.2429 154.348C45.4323 154.595 45.5981 154.878 45.7165 155.208C45.8467 155.539 45.9059 155.928 45.9059 156.352H45.8941ZM43.1589 157.059C43.1589 156.729 43.0879 156.435 42.9576 156.175C42.8274 155.916 42.6498 155.68 42.4366 155.48C42.2235 155.279 41.9749 155.091 41.6907 154.925C41.4065 154.76 41.1342 154.619 40.8382 154.489C40.554 154.36 40.2698 154.242 39.9975 154.136C39.7251 154.029 39.4883 153.923 39.2752 153.829C39.216 153.912 39.1213 154.018 38.991 154.147C38.8608 154.277 38.7305 154.442 38.6003 154.643C38.47 154.843 38.3516 155.067 38.2569 155.326C38.1622 155.586 38.1148 155.88 38.1148 156.222C38.1148 156.611 38.1859 156.989 38.3161 157.331C38.4582 157.684 38.6477 157.979 38.8845 158.238C39.1213 158.498 39.4055 158.698 39.7251 158.851C40.0448 159.005 40.3882 159.087 40.7434 159.087C41.0631 159.087 41.3591 159.04 41.6433 158.957C41.9275 158.875 42.188 158.733 42.413 158.568C42.6379 158.392 42.8155 158.179 42.9576 157.932C43.0879 157.684 43.1589 157.389 43.1589 157.071V157.059ZM42.8984 149.962C42.8984 149.644 42.8511 149.349 42.7445 149.054C42.6379 148.76 42.4958 148.512 42.3064 148.276C42.1169 148.052 41.892 147.875 41.6315 147.734C41.371 147.592 41.075 147.533 40.7553 147.533C40.4829 147.533 40.2343 147.581 40.0093 147.687C39.7725 147.793 39.5712 147.923 39.4055 148.099C39.2278 148.276 39.0976 148.477 38.991 148.712C38.8845 148.948 38.8371 149.196 38.8371 149.467C38.8371 149.868 38.92 150.21 39.0976 150.504C39.2752 150.799 39.512 151.059 39.7962 151.283C40.0804 151.507 40.4119 151.719 40.779 151.896C41.146 152.072 41.5249 152.249 41.9038 152.414C41.9985 152.308 42.1051 152.179 42.2235 152.025C42.3419 151.872 42.4485 151.683 42.5432 151.483C42.6379 151.283 42.7208 151.047 42.7919 150.787C42.8629 150.528 42.8866 150.257 42.8866 149.962H42.8984Z" fill="black"/>
<path d="M33.0944 110.349C33.0944 111.658 32.8813 112.813 32.4669 113.804C32.0525 114.794 31.4604 115.631 30.7026 116.291C29.9448 116.952 29.0331 117.459 27.9675 117.789C26.9018 118.119 25.7177 118.272 24.4271 118.26V116.692L25.3152 116.787C26.0374 116.739 26.6768 116.61 27.2215 116.386C27.7662 116.162 28.2279 115.867 28.6187 115.49C28.9976 115.112 29.3054 114.676 29.5422 114.157C29.7791 113.639 29.9448 113.049 30.0396 112.401C29.7672 112.589 29.4594 112.755 29.1397 112.896C28.8555 113.026 28.5358 113.144 28.1569 113.238C27.778 113.344 27.3754 113.391 26.9492 113.391C26.2387 113.391 25.623 113.273 25.0902 113.026C24.5574 112.778 24.1193 112.46 23.764 112.071C23.4088 111.682 23.1483 111.245 22.9826 110.762C22.805 110.279 22.7221 109.795 22.7221 109.324C22.7221 108.546 22.8523 107.838 23.1247 107.202C23.3851 106.565 23.7522 106.023 24.214 105.575C24.6758 105.127 25.2086 104.773 25.8125 104.525C26.4163 104.278 27.0676 104.148 27.7425 104.148C28.5832 104.148 29.3291 104.278 30.004 104.549C30.6671 104.82 31.2355 105.221 31.6972 105.74C32.159 106.27 32.5142 106.907 32.751 107.673C32.9879 108.44 33.1181 109.324 33.1181 110.314L33.0944 110.349ZM30.2172 109.607C30.2172 109.135 30.1698 108.652 30.0751 108.157C29.9803 107.661 29.8264 107.225 29.6251 106.824C29.4238 106.424 29.1633 106.105 28.8437 105.846C28.524 105.598 28.1451 105.469 27.707 105.469C27.3517 105.469 27.0439 105.563 26.7716 105.74C26.5111 105.917 26.2861 106.164 26.1085 106.459C25.9309 106.765 25.8006 107.107 25.7177 107.508C25.6349 107.897 25.5875 108.31 25.5875 108.734C25.5875 109.159 25.6349 109.583 25.7414 109.949C25.848 110.314 26.0019 110.621 26.2269 110.88C26.44 111.139 26.7124 111.34 27.0439 111.481C27.3754 111.623 27.7662 111.693 28.2161 111.693C28.5003 111.693 28.7608 111.67 29.0094 111.635C29.2581 111.587 29.4594 111.54 29.6251 111.493C29.8264 111.422 30.0159 111.352 30.1816 111.281C30.1935 111.057 30.2053 110.845 30.2053 110.644C30.2053 110.444 30.2053 110.267 30.2053 110.102C30.2053 109.925 30.2053 109.748 30.2053 109.595L30.2172 109.607Z" fill="black"/>
<path d="M32.0051 78.6712V77.6337L33.7338 77.563C33.8522 77.5512 33.9588 77.504 34.0417 77.4215C34.1245 77.339 34.1719 77.2447 34.1719 77.115V67.0939L31.1762 67.5183V66.4573L35.5217 64.8893H37.0018V77.115C37.0018 77.2447 37.0492 77.339 37.132 77.4215C37.2149 77.504 37.3215 77.5512 37.4517 77.563L39.0384 77.6337V78.6712H32.0051Z" fill="black"/>
<path d="M52.5958 71.9512C52.5958 72.8943 52.5011 73.7785 52.2998 74.6274C52.0985 75.4762 51.7907 76.2072 51.3644 76.8438C50.9382 77.4804 50.4053 77.9756 49.7423 78.3529C49.091 78.7301 48.2977 78.907 47.386 78.907C46.4743 78.907 45.6928 78.7183 45.0416 78.3529C44.3903 77.9756 43.8575 77.4804 43.4312 76.8438C43.0168 76.2072 42.709 75.4762 42.5077 74.6274C42.3064 73.7785 42.2117 72.8943 42.2117 71.9512C42.2117 71.008 42.3064 70.1238 42.5077 69.275C42.709 68.4379 43.0168 67.6952 43.4312 67.0585C43.8457 66.4219 44.3903 65.915 45.0416 65.5377C45.6928 65.1604 46.4743 64.9718 47.386 64.9718C48.2977 64.9718 49.091 65.1604 49.7423 65.5377C50.3935 65.915 50.9382 66.4219 51.3644 67.0585C51.7907 67.6952 52.0985 68.4379 52.2998 69.275C52.5011 70.112 52.5958 71.008 52.5958 71.9512ZM49.6594 71.9512C49.6594 71.6682 49.6594 71.3145 49.6357 70.9137C49.6239 70.5129 49.5883 70.1002 49.5528 69.664C49.5054 69.2278 49.4344 68.8034 49.3397 68.3907C49.245 67.9663 49.1147 67.5891 48.9371 67.259C48.7713 66.9289 48.5582 66.6577 48.2977 66.4455C48.0491 66.2451 47.7412 66.139 47.3741 66.139C47.0071 66.139 46.7111 66.2451 46.4624 66.4455C46.2138 66.6459 46.0125 66.9171 45.8467 67.259C45.6809 67.6009 45.5507 67.9781 45.456 68.3907C45.3612 68.8152 45.2902 69.2396 45.2428 69.664C45.1955 70.1002 45.1718 70.5129 45.16 70.9019C45.16 71.3027 45.1481 71.6446 45.1481 71.9394C45.1481 72.2341 45.1481 72.576 45.16 72.9769C45.16 73.3777 45.1955 73.7903 45.2428 74.2147C45.2902 74.6392 45.3612 75.0636 45.456 75.4762C45.5507 75.8888 45.6809 76.2661 45.8467 76.5962C46.0125 76.9263 46.2138 77.1975 46.4624 77.3979C46.7111 77.5983 47.0189 77.7044 47.3741 77.7044C47.7294 77.7044 48.0372 77.5983 48.2977 77.3979C48.5464 77.1975 48.7595 76.9263 48.9371 76.5962C49.1029 76.2661 49.245 75.8888 49.3397 75.4762C49.4344 75.0636 49.5054 74.6392 49.5528 74.2147C49.6002 73.7903 49.6239 73.3777 49.6357 72.9769C49.6475 72.576 49.6594 72.2341 49.6594 71.9394V71.9512Z" fill="black"/>
<path d="M60.979 47.6766V46.6392L62.7077 46.5684C62.8261 46.5566 62.9327 46.5095 63.0156 46.427C63.0984 46.3444 63.1458 46.2501 63.1458 46.1204V36.0994L60.1501 36.5238V35.4627L64.4956 33.8947H65.9757V46.1204C65.9757 46.2501 66.0231 46.3444 66.1059 46.427C66.2007 46.5095 66.2954 46.5566 66.4256 46.5684L68.0123 46.6392V47.6766H60.979Z" fill="black"/>
<path d="M72.7959 47.6766V46.6392L74.5246 46.5684C74.643 46.5566 74.7496 46.5095 74.8324 46.427C74.9153 46.3444 74.9627 46.2501 74.9627 46.1204V36.0994L71.967 36.5238V35.4627L76.3125 33.8947H77.7926V46.1204C77.7926 46.2501 77.84 46.3444 77.9228 46.427C78.0176 46.5095 78.1123 46.5566 78.2425 46.5684L79.8292 46.6392V47.6766H72.7959Z" fill="black"/>
<path d="M103.498 34.8379V33.8004L105.227 33.7297C105.346 33.7179 105.452 33.6707 105.535 33.5882C105.618 33.5057 105.665 33.4114 105.665 33.2817V23.2606L102.67 23.6851V22.624L107.015 21.056H108.495V33.2817C108.495 33.4114 108.543 33.5057 108.625 33.5882C108.708 33.6707 108.815 33.7179 108.945 33.7297L110.532 33.8004V34.8379H103.498Z" fill="black"/>
<path d="M113.859 34.8379V33.1756C114.131 32.9516 114.475 32.6804 114.913 32.3739C115.351 32.0556 115.813 31.7019 116.31 31.3129C116.807 30.9238 117.305 30.4876 117.802 30.0278C118.299 29.568 118.761 29.0729 119.164 28.5541C119.566 28.0354 119.898 27.5049 120.158 26.939C120.419 26.3849 120.537 25.8072 120.537 25.2177C120.537 24.8169 120.478 24.4514 120.359 24.1095C120.241 23.7676 120.075 23.4729 119.862 23.2135C119.649 22.9659 119.389 22.7655 119.081 22.624C118.773 22.4825 118.429 22.4118 118.051 22.4118C117.908 22.4118 117.802 22.4118 117.707 22.4354C117.612 22.4472 117.53 22.4707 117.447 22.4943C117.364 22.5179 117.281 22.5415 117.198 22.5769C117.115 22.6122 117.02 22.6476 116.914 22.6712V25.371C116.772 25.4417 116.618 25.5124 116.476 25.5714C116.346 25.6185 116.203 25.6657 116.038 25.7011C115.872 25.7364 115.718 25.76 115.552 25.76C115.067 25.76 114.688 25.6303 114.427 25.3592C114.167 25.088 114.037 24.7343 114.037 24.2863C114.037 23.8737 114.119 23.4964 114.273 23.1781C114.439 22.8598 114.652 22.5769 114.913 22.3411C115.185 22.1053 115.493 21.9049 115.836 21.7398C116.18 21.5747 116.535 21.4569 116.902 21.3507C117.269 21.2564 117.624 21.1857 117.98 21.1385C118.335 21.0914 118.654 21.0796 118.95 21.0796C119.59 21.0796 120.182 21.1739 120.738 21.3625C121.295 21.5512 121.78 21.8223 122.195 22.1642C122.609 22.5061 122.929 22.9305 123.166 23.4139C123.402 23.8973 123.521 24.4514 123.521 25.0526C123.521 25.7718 123.343 26.4438 123 27.0922C122.645 27.7289 122.159 28.3537 121.544 28.9667C120.916 29.5798 120.182 30.1929 119.329 30.7941C118.477 31.3954 117.553 32.032 116.559 32.6804H122.278L122.657 30.9238H123.947V34.8497H113.883L113.859 34.8379Z" fill="black"/>
<path d="M122.325 15.232C121.662 15.1731 121.176 14.5836 121.236 13.9352L122.183 3.47789C122.242 2.81768 122.834 2.33432 123.485 2.39326C124.148 2.45221 124.634 3.04168 124.575 3.69011L123.627 14.1474C123.568 14.8076 122.976 15.2909 122.325 15.232Z" fill="#4D4D4D"/>
<path d="M132.401 16.8354C131.75 16.7057 131.324 16.069 131.454 15.4324L133.491 5.12841C133.621 4.47999 134.26 4.05556 134.9 4.18525C135.551 4.31493 135.977 4.95156 135.847 5.5882L133.81 15.8922C133.68 16.5406 133.041 16.965 132.401 16.8354Z" fill="#4D4D4D"/>
<path d="M142.241 19.4762C141.613 19.2876 141.246 18.6038 141.448 17.9789L144.55 7.9461C144.739 7.32126 145.426 6.95579 146.053 7.15621C146.681 7.34484 147.048 8.02863 146.847 8.65347L143.745 18.6863C143.555 19.3112 142.868 19.6766 142.241 19.4762Z" fill="#4D4D4D"/>
<path d="M151.761 23.1309C151.157 22.8716 150.873 22.1642 151.133 21.5629L155.277 11.9073C155.538 11.3061 156.248 11.0231 156.852 11.2825C157.456 11.5419 157.74 12.2492 157.48 12.8505L153.335 22.5061C153.075 23.1073 152.365 23.3903 151.761 23.1309Z" fill="#4D4D4D"/>
<path d="M169.391 33.2935C168.847 32.9162 168.716 32.1617 169.095 31.6194L175.169 23.0366C175.548 22.4943 176.306 22.3646 176.851 22.7419C177.396 23.1191 177.526 23.8737 177.147 24.416L171.073 32.9987C170.694 33.541 169.936 33.6707 169.391 33.2935Z" fill="#4D4D4D"/>
<path d="M177.313 39.6951C176.815 39.2589 176.768 38.5044 177.194 38.0093L184.133 30.0985C184.571 29.6034 185.329 29.5562 185.826 29.9806C186.323 30.4168 186.371 31.1714 185.944 31.6665L179.006 39.5773C178.568 40.0724 177.81 40.1196 177.313 39.6951Z" fill="#4D4D4D"/>
<path d="M184.512 46.8867C184.062 46.4034 184.085 45.637 184.571 45.189L192.303 38.0446C192.788 37.5966 193.558 37.6202 194.008 38.1036C194.458 38.5869 194.434 39.3533 193.949 39.8013L186.217 46.9457C185.731 47.3937 184.962 47.3701 184.512 46.8867Z" fill="#4D4D4D"/>
<path d="M190.917 54.7857C190.515 54.2551 190.633 53.5006 191.154 53.1116L199.585 46.816C200.118 46.4151 200.875 46.533 201.266 47.0518C201.669 47.5823 201.55 48.3368 201.029 48.7259L192.599 55.0215C192.066 55.4223 191.308 55.3044 190.917 54.7857Z" fill="#4D4D4D"/>
<path d="M201.077 72.3755C200.804 71.7743 201.065 71.0669 201.657 70.784L211.224 66.3747C211.828 66.1036 212.538 66.3629 212.823 66.9524C213.095 67.5537 212.834 68.261 212.242 68.544L202.675 72.9532C202.071 73.2244 201.361 72.965 201.077 72.3755Z" fill="#4D4D4D"/>
<path d="M204.712 81.8543C204.499 81.2295 204.83 80.5457 205.458 80.3335L215.439 76.9381C216.067 76.7259 216.754 77.056 216.967 77.6808C217.18 78.3057 216.848 78.9895 216.221 79.2017L206.239 82.5971C205.612 82.8093 204.925 82.4792 204.712 81.8543Z" fill="#4D4D4D"/>
<path d="M207.34 91.6749C207.198 91.0383 207.601 90.3899 208.24 90.2366L218.518 87.9023C219.157 87.7608 219.808 88.1617 219.962 88.7983C220.104 89.4349 219.702 90.0834 219.062 90.2366L208.785 92.5709C208.145 92.7124 207.494 92.3116 207.34 91.6749Z" fill="#4D4D4D"/>
<path d="M208.927 101.708C208.844 101.059 209.318 100.458 209.981 100.376L220.448 99.1259C221.099 99.0434 221.703 99.5149 221.786 100.175C221.869 100.824 221.395 101.425 220.732 101.507L210.265 102.757C209.614 102.84 209.01 102.368 208.927 101.708Z" fill="#4D4D4D"/>
<path d="M208.891 121.986C208.951 121.325 209.543 120.842 210.194 120.901L220.696 121.844C221.36 121.903 221.845 122.493 221.786 123.141C221.727 123.801 221.135 124.285 220.483 124.226L209.981 123.283C209.318 123.224 208.832 122.634 208.891 121.986Z" fill="#4D4D4D"/>
<path d="M207.281 132.019C207.411 131.37 208.051 130.946 208.69 131.075L219.039 133.103C219.69 133.233 220.116 133.869 219.986 134.506C219.856 135.155 219.216 135.579 218.577 135.449L208.228 133.421C207.577 133.292 207.151 132.655 207.281 132.019Z" fill="#4D4D4D"/>
<path d="M204.629 141.816C204.818 141.191 205.505 140.825 206.133 141.026L216.209 144.115C216.836 144.303 217.204 144.987 217.002 145.612C216.813 146.237 216.126 146.602 215.498 146.402L205.422 143.313C204.795 143.124 204.428 142.44 204.629 141.816Z" fill="#4D4D4D"/>
<path d="M200.958 151.294C201.219 150.693 201.929 150.41 202.533 150.658L212.23 154.784C212.834 155.043 213.119 155.751 212.858 156.352C212.598 156.953 211.887 157.236 211.283 156.977L201.586 152.851C200.982 152.591 200.698 151.884 200.958 151.283V151.294Z" fill="#4D4D4D"/>
<path d="M190.752 168.849C191.131 168.307 191.888 168.177 192.433 168.554L201.053 174.602C201.598 174.979 201.728 175.734 201.349 176.276C200.97 176.819 200.212 176.948 199.668 176.571L191.048 170.523C190.503 170.146 190.373 169.391 190.752 168.849Z" fill="#4D4D4D"/>
<path d="M184.322 176.724C184.76 176.229 185.518 176.182 186.015 176.606L193.96 183.515C194.458 183.951 194.505 184.706 194.079 185.201C193.641 185.696 192.883 185.743 192.386 185.319L184.441 178.41C183.943 177.974 183.896 177.219 184.322 176.724Z" fill="#4D4D4D"/>
<path d="M177.099 183.904C177.585 183.456 178.355 183.48 178.805 183.963L185.98 191.661C186.43 192.145 186.406 192.911 185.921 193.359C185.435 193.807 184.666 193.784 184.216 193.3L177.04 185.602C176.59 185.118 176.614 184.352 177.099 183.904Z" fill="#4D4D4D"/>
<path d="M169.166 190.282C169.699 189.881 170.457 189.999 170.848 190.518L177.171 198.912C177.573 199.443 177.455 200.197 176.934 200.586C176.401 200.987 175.643 200.869 175.252 200.35L168.929 191.956C168.527 191.426 168.645 190.671 169.166 190.282Z" fill="#4D4D4D"/>
<path d="M151.5 200.397C152.104 200.126 152.814 200.386 153.099 200.987L157.527 210.513C157.799 211.114 157.539 211.821 156.947 212.104C156.343 212.376 155.633 212.116 155.348 211.515L150.92 201.989C150.648 201.388 150.908 200.68 151.5 200.397Z" fill="#4D4D4D"/>
<path d="M141.98 204.017C142.608 203.805 143.295 204.135 143.508 204.76L146.918 214.698C147.131 215.323 146.799 216.007 146.172 216.219C145.544 216.431 144.858 216.101 144.644 215.476L141.234 205.538C141.021 204.913 141.353 204.229 141.98 204.017Z" fill="#4D4D4D"/>
<path d="M132.117 206.634C132.757 206.493 133.408 206.893 133.562 207.53L135.906 217.763C136.048 218.4 135.646 219.048 135.006 219.202C134.367 219.343 133.716 218.942 133.562 218.306L131.217 208.072C131.075 207.436 131.478 206.787 132.117 206.634Z" fill="#4D4D4D"/>
<path d="M122.041 208.214C122.692 208.131 123.296 208.603 123.379 209.263L124.634 219.685C124.717 220.333 124.243 220.935 123.58 221.017C122.929 221.1 122.325 220.628 122.242 219.968L120.987 209.546C120.904 208.886 121.378 208.296 122.041 208.214Z" fill="#4D4D4D"/>
<path d="M101.675 208.179C102.338 208.237 102.824 208.827 102.764 209.475L101.817 219.933C101.758 220.593 101.166 221.076 100.515 221.017C99.8516 220.958 99.3661 220.369 99.4253 219.72L100.373 209.263C100.432 208.603 101.024 208.12 101.675 208.179Z" fill="#4D4D4D"/>
<path d="M91.5987 206.575C92.2499 206.705 92.6762 207.341 92.5459 207.978L90.5094 218.282C90.3791 218.931 89.7397 219.355 89.1003 219.225C88.4491 219.096 88.0228 218.459 88.1531 217.822L90.1897 207.518C90.3199 206.87 90.9593 206.445 91.5987 206.575Z" fill="#4D4D4D"/>
<path d="M81.7592 203.934C82.3867 204.123 82.7538 204.807 82.5525 205.432L79.4503 215.464C79.2608 216.089 78.5741 216.455 77.9465 216.254C77.319 216.066 76.9519 215.382 77.1532 214.757L80.2554 204.724C80.4449 204.099 81.1316 203.734 81.7592 203.934Z" fill="#4D4D4D"/>
<path d="M72.2393 200.28C72.8432 200.539 73.1274 201.246 72.8669 201.848L68.7227 211.503C68.4622 212.104 67.7518 212.387 67.1479 212.128C66.544 211.869 66.2599 211.161 66.5204 210.56L70.6646 200.904C70.925 200.303 71.6355 200.02 72.2393 200.28Z" fill="#4D4D4D"/>
<path d="M54.6087 190.117C55.1534 190.494 55.2836 191.249 54.9047 191.791L48.8305 200.374C48.4516 200.916 47.6938 201.046 47.1492 200.669C46.6045 200.291 46.4743 199.537 46.8532 198.995L52.9274 190.412C53.3063 189.869 54.0641 189.74 54.6087 190.117Z" fill="#4D4D4D"/>
<path d="M46.6992 183.715C47.1965 184.152 47.2439 184.906 46.8176 185.401L39.8791 193.312C39.441 193.807 38.6832 193.854 38.1859 193.43C37.6885 192.994 37.6412 192.239 38.0674 191.744L45.006 183.833C45.4441 183.338 46.2019 183.291 46.6992 183.715Z" fill="#4D4D4D"/>
<path d="M39.4883 176.524C39.9383 177.007 39.9146 177.773 39.4291 178.221L31.6972 185.366C31.2118 185.814 30.4421 185.79 29.9922 185.307C29.5422 184.824 29.5659 184.057 30.0514 183.609L37.7833 176.465C38.2687 176.017 39.0384 176.04 39.4883 176.524Z" fill="#4D4D4D"/>
<path d="M33.0826 168.625C33.4851 169.155 33.3667 169.91 32.8458 170.299L24.4153 176.595C23.8824 176.995 23.1246 176.877 22.7339 176.359C22.3313 175.828 22.4497 175.074 22.9707 174.685L31.4012 168.389C31.934 167.988 32.6918 168.106 33.0826 168.625Z" fill="#4D4D4D"/>
<path d="M22.9234 151.035C23.1957 151.636 22.9352 152.344 22.3432 152.627L12.776 157.036C12.1721 157.307 11.4617 157.048 11.1775 156.458C10.9052 155.857 11.1657 155.149 11.7577 154.867L21.3249 150.457C21.9288 150.186 22.6392 150.445 22.9234 151.035Z" fill="#4D4D4D"/>
<path d="M19.2883 141.556C19.5014 142.181 19.1699 142.865 18.5423 143.077L8.56073 146.472C7.93318 146.685 7.24643 146.355 7.0333 145.73C6.82017 145.105 7.1517 144.421 7.77925 144.209L17.7609 140.813C18.3884 140.601 19.0752 140.931 19.2883 141.556Z" fill="#4D4D4D"/>
<path d="M16.6597 131.736C16.8018 132.372 16.3992 133.021 15.7598 133.174L5.48218 135.508C4.84279 135.65 4.19156 135.249 4.03763 134.612C3.89555 133.976 4.29813 133.327 4.93752 133.174L15.2151 130.84C15.8545 130.698 16.5058 131.099 16.6597 131.736Z" fill="#4D4D4D"/>
<path d="M15.0731 121.703C15.1559 122.351 14.6823 122.952 14.0192 123.035L3.55217 124.285C2.90094 124.367 2.29707 123.896 2.21419 123.235C2.1313 122.587 2.60493 121.986 3.268 121.903L13.7351 120.653C14.3863 120.571 14.9902 121.043 15.0731 121.703Z" fill="#4D4D4D"/>
<path d="M15.1086 101.425C15.0494 102.085 14.4573 102.568 13.8061 102.509L3.30352 101.566C2.64045 101.507 2.15499 100.918 2.21419 100.269C2.27339 99.6093 2.86542 99.1259 3.51666 99.1848L14.0192 100.128C14.6823 100.187 15.1678 100.776 15.1086 101.425Z" fill="#4D4D4D"/>
<path d="M16.7189 91.392C16.5887 92.0404 15.9493 92.4648 15.3099 92.3351L4.96121 90.3074C4.30998 90.1777 3.88372 89.541 4.01396 88.9044C4.14421 88.256 4.7836 87.8316 5.42299 87.9612L15.7717 89.989C16.4229 90.1187 16.8491 90.7554 16.7189 91.392Z" fill="#4D4D4D"/>
<path d="M19.3712 81.5949C19.1817 82.2198 18.495 82.5853 17.8674 82.3848L7.79111 79.296C7.16356 79.1074 6.7965 78.4236 6.99779 77.7987C7.18724 77.1739 7.87399 76.8084 8.50154 77.0088L18.5779 80.0977C19.2054 80.2863 19.5725 80.9701 19.3712 81.5949Z" fill="#4D4D4D"/>
<path d="M23.0418 72.1162C22.7813 72.7174 22.0708 73.0004 21.467 72.7528L11.7695 68.6265C11.1657 68.3671 10.8815 67.6598 11.142 67.0585C11.4025 66.4572 12.1129 66.1743 12.7168 66.4337L22.4142 70.56C23.0181 70.8193 23.3022 71.5267 23.0418 72.128V72.1162Z" fill="#4D4D4D"/>
<path d="M33.2483 54.5617C32.8694 55.104 32.1116 55.2337 31.567 54.8564L22.947 48.8084C22.4024 48.4311 22.2721 47.6766 22.651 47.1343C23.0299 46.592 23.7877 46.4623 24.3324 46.8396L32.9523 52.8876C33.497 53.2648 33.6272 54.0194 33.2483 54.5617Z" fill="#4D4D4D"/>
<path d="M39.6778 46.6863C39.2397 47.1815 38.4819 47.2286 37.9846 46.8042L30.0395 39.8956C29.5422 39.4593 29.4949 38.7048 29.9211 38.2097C30.3592 37.7145 31.117 37.6674 31.6143 38.0918L39.5594 45.0004C40.0567 45.4366 40.104 46.1911 39.6778 46.6863Z" fill="#4D4D4D"/>
<path d="M46.9005 39.5065C46.4151 39.9545 45.6454 39.9309 45.1955 39.4476L38.0201 31.7491C37.5701 31.2657 37.5938 30.4994 38.0793 30.0514C38.5648 29.6034 39.3344 29.627 39.7843 30.1103L46.9597 37.8088C47.4097 38.2922 47.386 39.0585 46.9005 39.5065Z" fill="#4D4D4D"/>
<path d="M54.8337 33.1284C54.3009 33.5292 53.5431 33.4114 53.1523 32.8926L46.8295 24.4985C46.4269 23.968 46.5453 23.2135 47.0663 22.8244C47.5991 22.4236 48.3569 22.5415 48.7476 23.0602L55.0705 31.4543C55.4731 31.9848 55.3547 32.7394 54.8337 33.1284Z" fill="#4D4D4D"/>
<path d="M72.4998 23.013C71.896 23.2842 71.1855 23.0248 70.9014 22.4236L66.473 12.8977C66.2007 12.2964 66.4612 11.589 67.0532 11.3061C67.6571 11.0349 68.3675 11.2943 68.6517 11.8956L73.08 21.4215C73.3524 22.0227 73.0919 22.7301 72.4998 23.013Z" fill="#4D4D4D"/>
<path d="M82.0197 19.3937C81.3921 19.6059 80.7054 19.2758 80.4922 18.6509L77.0821 8.7124C76.869 8.08756 77.2006 7.40377 77.8281 7.19156C78.4557 6.97935 79.1424 7.30945 79.3555 7.9343L82.7656 17.8728C82.9788 18.4977 82.6472 19.1815 82.0197 19.3937Z" fill="#4D4D4D"/>
<path d="M91.8829 16.7764C91.2435 16.9179 90.5922 16.517 90.4383 15.8804L88.0939 5.64714C87.9518 5.0105 88.3544 4.36208 88.9938 4.20882C89.6332 4.06735 90.2844 4.46819 90.4383 5.10482L92.7828 15.3381C92.9248 15.9747 92.5223 16.6231 91.8829 16.7764Z" fill="#4D4D4D"/>
<path d="M101.959 15.1966C101.308 15.2792 100.704 14.8076 100.621 14.1474L99.3661 3.72547C99.2832 3.07705 99.7569 2.47578 100.42 2.39326C101.071 2.31073 101.675 2.78231 101.758 3.44252L103.013 13.8644C103.096 14.5246 102.622 15.1141 101.959 15.1966Z" fill="#4D4D4D"/>
<path d="M161.423 29.509C160.949 29.509 160.475 29.3911 160.061 29.1554C159.41 28.7899 158.936 28.1886 158.723 27.4695C158.522 26.7503 158.604 25.9958 158.972 25.3356L164.11 16.1634C164.608 15.2791 165.555 14.725 166.573 14.725C167.047 14.725 167.52 14.8429 167.935 15.0787C168.586 15.4442 169.06 16.0455 169.273 16.7646C169.474 17.4838 169.391 18.2383 169.024 18.8985L163.885 28.0707C163.388 28.9549 162.441 29.509 161.423 29.509Z" fill="black"/>
<path d="M197.489 65.5023C196.506 65.5023 195.571 64.9836 195.073 64.1347C194.695 63.4981 194.576 62.7436 194.766 62.0126C194.943 61.2817 195.405 60.6804 196.044 60.2914L205.091 54.9036C205.529 54.6442 206.026 54.5027 206.535 54.5027C207.518 54.5027 208.453 55.0215 208.951 55.8703C209.744 57.1907 209.306 58.9238 207.98 59.7137L198.934 65.1015C198.495 65.3609 197.998 65.5023 197.489 65.5023Z" fill="black"/>
<path d="M210.644 114.629C209.116 114.629 207.849 113.391 207.826 111.87C207.802 110.326 209.045 109.053 210.596 109.029L221.182 108.876C222.709 108.876 223.976 110.114 224 111.635C224 112.377 223.728 113.085 223.207 113.627C222.686 114.169 221.975 114.464 221.229 114.476L210.644 114.629Z" fill="black"/>
<path d="M206.571 168.837C206.097 168.837 205.623 168.719 205.209 168.483L195.997 163.367C194.647 162.612 194.15 160.903 194.908 159.559C195.405 158.675 196.352 158.12 197.371 158.12C197.844 158.12 198.318 158.238 198.732 158.474L207.944 163.591C209.294 164.345 209.791 166.055 209.034 167.399C208.536 168.283 207.589 168.837 206.571 168.837Z" fill="black"/>
<path d="M166.632 208.638C165.65 208.638 164.714 208.12 164.217 207.271L158.806 198.264C158.415 197.627 158.308 196.872 158.498 196.141C158.687 195.411 159.137 194.809 159.777 194.42C160.215 194.161 160.712 194.019 161.221 194.019C162.204 194.019 163.139 194.538 163.637 195.387L169.048 204.394C169.841 205.726 169.403 207.448 168.077 208.237C167.639 208.497 167.142 208.638 166.632 208.638Z" fill="black"/>
<path d="M112.036 224C110.508 224 109.241 222.373 109.217 220.852L109.064 210.159C109.064 209.416 109.336 208.792 109.857 208.261C110.378 207.719 111.088 207.495 111.834 207.495H111.882C113.409 207.495 114.676 208.544 114.7 210.065L114.854 220.463C114.854 221.206 114.581 222.255 114.06 222.797C113.539 223.34 112.829 223.988 112.083 223.988H112.036V224Z" fill="black"/>
<path d="M57.4386 208.674C56.965 208.674 56.4914 208.556 56.077 208.32C54.7272 207.565 54.2298 205.856 54.9876 204.512L60.1265 195.34C60.6238 194.456 61.571 193.901 62.5893 193.901C63.0629 193.901 63.5365 194.019 63.951 194.255C65.3008 195.01 65.7981 196.719 65.0403 198.063L59.9015 207.235C59.4042 208.12 58.4569 208.674 57.4386 208.674Z" fill="black"/>
<path d="M17.4649 168.896C16.4821 168.896 15.5467 168.377 15.0494 167.528C14.2561 166.196 14.6942 164.475 16.0203 163.685L25.0665 158.297C25.5046 158.038 26.0019 157.896 26.5111 157.896C27.4938 157.896 28.4292 158.415 28.9265 159.264C29.7199 160.584 29.2818 162.317 27.9556 163.107L18.9094 168.495C18.4713 168.755 17.974 168.896 17.4649 168.896Z" fill="black"/>
<path d="M2.81807 114.547C1.29064 114.547 0.0236935 113.309 1.23313e-05 111.776C-0.0236688 110.232 1.21959 108.958 2.77071 108.935L13.3562 108.781C14.8836 108.781 16.1506 110.019 16.1742 111.54C16.1979 113.085 14.9547 114.358 13.4035 114.381L2.81807 114.535V114.547Z" fill="black"/>
<path d="M26.6295 65.2901C26.1558 65.2901 25.6822 65.1722 25.2678 64.9364L16.0558 59.8198C14.706 59.0653 14.2087 57.3558 14.9665 56.0118C15.4638 55.1276 16.411 54.5735 17.4293 54.5735C17.903 54.5735 18.3766 54.6914 18.791 54.9272L28.003 60.0438C28.6542 60.4093 29.1278 61.0105 29.341 61.7297C29.5422 62.4489 29.4594 63.2034 29.0923 63.8636C28.595 64.7478 27.6478 65.3019 26.6295 65.3019V65.2901Z" fill="black"/>
<path d="M62.7906 29.3794C61.8078 29.3794 60.8724 28.8606 60.3751 28.0118L54.964 19.0046C54.1706 17.6842 54.6087 15.9511 55.9349 15.1612C56.373 14.9019 56.8703 14.7604 57.3794 14.7604C58.3622 14.7604 59.2976 15.2791 59.7949 16.128L65.2061 25.1351C65.9994 26.4556 65.5613 28.1886 64.2351 28.9785C63.797 29.2379 63.2997 29.3794 62.7906 29.3794Z" fill="black"/>
<path d="M112.118 16.5053C110.591 16.5053 109.324 15.1613 109.3 13.6404L109.146 2.99453C109.123 1.45011 110.366 0 111.917 0H111.964C113.492 0 114.759 1.33221 114.783 2.85305L114.936 13.3928C114.936 14.1356 114.664 14.9844 114.143 15.5149C113.622 16.0455 112.912 16.4935 112.166 16.4935H112.118V16.5053Z" fill="black"/>
<path d="M106.695 114.712C106.21 113.863 105.961 112.955 105.914 112.059C105.914 111.929 105.902 111.8 105.914 111.658C105.926 109.56 107.039 107.532 109.004 106.424C109.277 106.27 109.561 106.141 109.845 106.035C111.574 105.374 113.468 105.551 115.019 106.412L177.159 110.986L118.133 111.54C118.133 111.67 118.133 111.811 118.133 111.941L177.171 111.387L114.723 117.164C113.338 117.848 111.799 117.942 110.402 117.565C108.898 117.14 107.56 116.162 106.731 114.712H106.695Z" fill="black"/>
<path d="M112 47.8063L115.138 107.921C116.89 109.359 117.459 111.87 116.369 113.957C116.132 114.405 115.848 114.794 115.517 115.136C114.64 116.032 113.445 116.551 112.213 116.61C112.083 116.61 111.941 116.61 111.811 116.61C111.112 116.586 110.402 116.409 109.727 116.067C109.253 115.832 108.85 115.513 108.495 115.171C107.027 113.698 106.601 111.399 107.619 109.453C107.927 108.864 108.341 108.345 108.827 107.944L111.597 47.8181L111.787 106.813C111.917 106.813 112.059 106.813 112.189 106.813L112 47.8181V47.8063Z" fill="#4D4D4D"/>
<path d="M115.576 111.705C115.576 113.627 114.037 115.195 112.13 115.266L76.9637 175.274L110.342 114.865C110.224 114.806 110.106 114.735 109.999 114.653L76.6085 175.085L108.768 113.238C108.543 112.778 108.424 112.259 108.424 111.705C108.424 109.949 109.703 108.487 111.384 108.192C111.586 108.157 111.787 108.145 112 108.145C112.509 108.145 112.983 108.251 113.421 108.44C113.551 108.487 113.67 108.557 113.788 108.616C114.38 108.958 114.854 109.453 115.173 110.055C115.434 110.55 115.576 111.104 115.576 111.693V111.705Z" fill="#FF1D25"/>
<path d="M114.318 111.784C114.358 110.515 113.357 109.454 112.082 109.414C110.808 109.375 109.742 110.371 109.702 111.64C109.662 112.909 110.663 113.97 111.938 114.01C113.212 114.05 114.278 113.053 114.318 111.784Z" fill="black"/>
<path d="M113.504 111.705C113.504 112.531 112.829 113.203 112 113.203C111.171 113.203 110.496 112.531 110.496 111.705C110.496 110.88 111.171 110.208 112 110.208C112.829 110.208 113.504 110.88 113.504 111.705Z" fill="white"/>
</g>
<defs>
<clipPath id="clip0_60_2">
<rect width="224" height="224" fill="white"/>
</clipPath>
</defs>
</svg>
