<?xml version="1.0" encoding="UTF-8"?>
<svg id="Layer_1" data-name="Layer 1" xmlns="http://www.w3.org/2000/svg" viewBox="0 0 595.28 841.89">
  <defs>
    <style>
      .cls-1 {
        fill: #fff;
      }

      .cls-2 {
        fill: #f4973b;
      }

      .cls-3 {
        fill: #07558e;
      }
    </style>
  </defs>
  <g>
    <polyline class="cls-2" points="307.05 395.6 307.05 401.71 293.39 401.71 293.39 399.36"/>
    <path class="cls-3" d="m207.51,329.68v71.17h-13.61v-28.29h-35.1v28.29h-13.61v-71.17h13.61v30.82h35.1v-30.82h13.61Z"/>
    <path class="cls-3" d="m227.01,401.01h-13.66v-71.32h13.66v71.32Z"/>
    <path class="cls-3" d="m354.65,381.8v-52.12h13.66v48.36"/>
    <path class="cls-3" d="m399.2,369.54l-12.52-10.98v14.42m34.74-9.56v-33.75h13.66v29.99m-62.05,17.08v-47.06l40.35,35.96"/>
    <path class="cls-3" d="m264.75,329.58c3.51,0,6.81.67,9.9,2,3.09,1.33,5.77,3.14,8.05,5.42,2.28,2.28,4.08,4.96,5.42,8.05,1.33,3.09,2,6.39,2,9.9s-.58,6.77-1.76,9.76c-1.17,2.99-2.89,5.61-5.17,7.85-2.28,2.24-5.16,4-8.63,5.27-3.48,1.27-7.5,1.9-12.05,1.9h-15.9v21.27h-13.66v-71.42h31.81Zm0,37.86c2.02,0,3.77-.34,5.27-1.02,1.5-.68,2.71-1.61,3.66-2.78.94-1.17,1.64-2.5,2.1-4,.45-1.5.68-3.06.68-4.68s-.29-3.24-.88-4.83c-.58-1.59-1.43-3.01-2.54-4.24-1.11-1.24-2.47-2.24-4.1-3.03-1.63-.78-3.51-1.17-5.66-1.17h-16.68v25.76h18.15Z"/>
    <path class="cls-3" d="m293.39,398.66v-69.07h31.81c3.51,0,6.81.67,9.9,2,3.09,1.33,5.77,3.14,8.05,5.42,2.28,2.28,4.08,4.96,5.42,8.05,1.33,3.09,2,6.39,2,9.9s-.58,6.77-1.76,9.76c-1.17,2.99-2.89,5.61-5.17,7.85-2.28,2.24-5.16,4-8.63,5.27-3.48,1.27-7.5,1.9-12.05,1.9h-15.9v15.16m18.15-27.46c2.02,0,3.77-.34,5.27-1.02,1.5-.68,2.71-1.61,3.66-2.78.94-1.17,1.64-2.5,2.1-4,.45-1.5.68-3.06.68-4.68s-.29-3.24-.88-4.83c-.58-1.59-1.43-3.01-2.54-4.24-1.11-1.24-2.47-2.24-4.1-3.03-1.63-.78-3.51-1.17-5.66-1.17h-16.68v25.76h18.15Z"/>
    <path class="cls-3" d="m141.66,371.99c-.94-2.17-2.18-3.99-3.71-5.47-1.53-1.48-3.27-2.69-5.22-3.63s-3.92-1.7-5.9-2.26c-1.98-.57-3.9-1.01-5.76-1.32-1.85-.31-3.46-.63-4.83-.94-1.82-.44-3.71-.88-5.66-1.32-1.95-.44-3.74-.98-5.37-1.6-1.63-.63-2.96-1.41-4-2.36-1.04-.94-1.56-2.11-1.56-3.49s.44-2.56,1.32-3.54c.88-.97,1.98-1.78,3.32-2.41,1.33-.63,2.75-1.08,4.24-1.37,1.5-.28,2.83-.42,4-.42.45,0,.9-.02,1.34-.01h0s25.82,0,25.82,0v-12.26h-25.82c-.25,0-.5,0-.75,0-2.99,0-6.1.32-9.32.94-3.22.63-6.15,1.71-8.78,3.26-2.64,1.54-4.8,3.65-6.49,6.32-1.69,2.67-2.54,6.02-2.54,10.05,0,2.77.47,5.17,1.42,7.22.94,2.05,2.19,3.81,3.76,5.28,1.56,1.48,3.32,2.7,5.27,3.68,1.95.98,3.94,1.76,5.95,2.36,2.01.6,3.97,1.07,5.85,1.41,1.89.35,3.54.65,4.98.9,2.15.38,4.21.79,6.2,1.23,1.98.44,3.71.98,5.17,1.6,1.46.63,2.63,1.43,3.51,2.41.88.98,1.32,2.16,1.32,3.54,0,1.07-.29,2.15-.88,3.25-.58,1.1-1.46,2.08-2.63,2.93-1.17.85-2.6,1.54-4.29,2.08-1.69.53-3.64.71-5.85.71h-27.04v12.26h25.37c.58.01,1.26,0,1.87,0,4.03,0,7.71-.44,11.03-1.32,3.32-.88,6.18-2.18,8.59-3.91,2.41-1.73,4.26-3.91,5.56-6.56,1.3-2.64,1.95-5.75,1.95-9.34,0-3.08-.47-5.71-1.42-7.88Z"/>
    <g>
      <polygon class="cls-2" points="490.48 401.01 502.77 401.01 502.77 388.71 502.77 374.27 502.77 372.69 502.77 361.98 474.46 361.98 474.46 374.27 490.48 374.27 490.48 388.71 490.48 401.01"/>
      <path class="cls-2" d="m438.66,358.68v14.48c0,4.16.63,7.97,1.9,11.42,1.27,3.45,3.06,6.39,5.37,8.83,2.31,2.44,5.09,4.33,8.34,5.66,2.82,1.16,5.93,1.77,9.29,1.93h0s.17.01.17.01c0,0,0,0,0,0h0s39.04,0,39.04,0v-12.42h-39.18c-2.09-.17-3.83-.67-5.18-1.57-1.66-1.11-2.94-2.47-3.85-4.1-.91-1.62-1.51-3.32-1.8-5.07-.29-1.76-.44-3.32-.44-4.68v-15.63c0-.81.05-1.7.16-2.65"/>
    </g>
    <polyline class="cls-1" points="435.07 359.67 501.52 341.38 495.65 339.73 281.28 401.88 273.98 404 413.37 365.64"/>
    <line class="cls-1" x1="421.41" y1="363.43" x2="435.07" y2="359.67"/>
    <line class="cls-1" x1="413.37" y1="365.64" x2="421.41" y2="363.43"/>
    <polyline class="cls-2" points="368.31 378.04 368.31 401.01 354.65 401.01 354.65 381.8"/>
    <polyline class="cls-2" points="386.68 372.98 386.68 401.01 373.02 401.01 373.02 376.74"/>
    <polyline class="cls-2" points="435.07 359.67 435.07 401.01 399.2 369.54"/>
    <polyline class="cls-1" points="413.37 365.4 421.41 372.57 421.41 363.19"/>
    <polygon class="cls-3" points="465.14 332 472.64 340.07 495.63 336.57 474.24 343.89 472.57 355.03 481.03 351.78 486.3 357.72 508.88 332.75 465.14 332"/>
  </g>
  <g>
    <path class="cls-3" d="m308.59,417.07c0-1.1-.23-1.89-.7-2.37s-1.13-.72-2-.72h-5.02v-1h5.22c2.48,0,3.72,1.37,3.72,4.12v8.14h-1.23v-8.16Zm-7.71,2.16l.18-1.49h1.05v7.49h-1.23v-6Z"/>
    <path class="cls-3" d="m316.17,424.23c.82-.1,1.51-.3,2.08-.59.57-.29,1.06-.81,1.45-1.56s.64-1.8.72-3.15l.4-4.95h-8.09v-1h9.41l-.07.94-.4,4.86c-.1,2.14-.65,3.73-1.63,4.77s-2.23,1.6-3.75,1.69l-.13-1Zm-3.32-5.37l.18-1.52h1.05v12.35h-1.23v-10.83Z"/>
    <path class="cls-3" d="m325.22,415.58l-.29-2.61h1.2l.31,2.61v3.28l-.02,1.4-1.2.29v-4.97Z"/>
    <path class="cls-3" d="m329.28,412.97h1.23l1.36,11.32c1.78-.18,3.25-.77,4.4-1.78,1.15-1.01,1.69-2.59,1.62-4.73v-.51c0-1.01-.26-1.81-.78-2.41-.52-.59-1.29-.92-2.32-.98l-1.11-.07.09-1.03,1.2.09c2.63.19,3.99,1.59,4.08,4.19l.02.62c.09,2.54-.64,4.44-2.18,5.7-1.55,1.26-3.58,1.94-6.11,2.06l-1.49-12.48Z"/>
    <path class="cls-3" d="m349.07,423.58c-1.56,1.11-3.64,1.74-6.24,1.87l-1.38-11.48-.11-1h5.84c1.26,0,2.25.4,2.95,1.21s1.08,1.91,1.13,3.29l.02.65c.09,2.53-.65,4.35-2.21,5.46Zm-.62-.89c1.16-.89,1.7-2.42,1.63-4.57v-.51c0-1.06-.26-1.92-.79-2.61-.53-.68-1.27-1.03-2.22-1.03h-4.39l1.25,10.32c1.86-.18,3.37-.71,4.53-1.6Z"/>
    <path class="cls-3" d="m354.31,415.58l-.29-2.61h1.2l.31,2.61v3.28l-.02,1.4-1.2.29v-4.97Z"/>
    <path class="cls-3" d="m362.87,425.23l-.6-3.23c-.83,1.69-2.16,2.87-3.97,3.52l-.45-1.03c.98-.36,1.81-.83,2.47-1.43.67-.59,1.23-1.38,1.69-2.36v-4.26c0-.8-.09-1.4-.28-1.78-.19-.39-.56-.62-1.13-.71l-1.45-.22.18-1,1.63.27c.85.15,1.43.48,1.76,1,.33.52.49,1.31.49,2.39v4.35l.83,4.5h-1.18Z"/>
    <path class="cls-3" d="m366.97,415.58l-.29-2.61h1.2l.31,2.61v9.65h-1.23v-9.65Z"/>
    <path class="cls-3" d="m379.21,412.97v1.07l-4.41,11.19h-1.2l4.39-11.26h-7.09v-4.73h1.16v3.72h7.16Z"/>
    <path class="cls-3" d="m386.63,410.85h.89v16.61h-.89v-16.61Z"/>
    <path class="cls-3" d="m407.41,417.07c0-1.1-.23-1.89-.7-2.37s-1.13-.72-2-.72h-5.02v-1h5.22c2.48,0,3.72,1.37,3.72,4.12v8.14h-1.23v-8.16Zm-7.71,2.16l.18-1.49h1.05v7.49h-1.23v-6Z"/>
    <path class="cls-3" d="m420.43,425.23h-9.23v-1.03h7.33l-6.8-11.23h1.27l3.39,5.6,2.43-5.6h1.25l-3.01,6.71,3.37,5.55Z"/>
    <path class="cls-3" d="m423.3,424.21h3.37c1.28,0,2.3-.33,3.05-1,.76-.67,1.14-1.83,1.14-3.48v-1.29c0-2.97-1.12-4.46-3.37-4.46h-2.56l-.65,2.68c-.12.52-.18.94-.18,1.27,0,.55.15.98.45,1.3.3.32.79.54,1.47.66l-.31.94c-.95-.15-1.64-.45-2.07-.91-.43-.46-.65-1.1-.65-1.92,0-.46.05-.93.16-1.4l.85-3.61h3.66c1.41,0,2.5.46,3.27,1.38.76.92,1.15,2.28,1.15,4.08v1.25c0,1.98-.48,3.4-1.45,4.26-.97.86-2.23,1.29-3.79,1.29h-3.52v-1.03Z"/>
    <path class="cls-3" d="m442.5,417.07c0-1.1-.23-1.89-.7-2.37s-1.13-.72-2-.72h-5.02v-1h5.22c2.48,0,3.72,1.37,3.72,4.12v8.14h-1.23v-8.16Zm-7.71,2.16l.18-1.49h1.05v7.49h-1.23v-6Z"/>
    <path class="cls-3" d="m456.12,410.85h.89v16.61h-.89v-16.61Z"/>
    <path class="cls-3" d="m473.02,414.11c.63.76.95,1.88.95,3.37v7.76h-1.2v-7.78c0-1.14-.23-2.01-.68-2.6s-1.13-.88-2.04-.88h-4.04v11.26h-1.2v-12.26h5.46c1.2,0,2.12.38,2.75,1.14Z"/>
    <path class="cls-3" d="m477.49,415.58l-.29-2.61h1.2l.31,2.61v9.65h-1.23v-9.65Z"/>
    <path class="cls-3" d="m489.73,412.97v1.07l-4.41,11.19h-1.2l4.39-11.26h-7.09v-4.73h1.16v3.72h7.16Z"/>
    <path class="cls-3" d="m492.7,415.58l-.29-2.61h1.2l.31,2.61v3.28l-.02,1.4-1.2.29v-4.97Z"/>
    <path class="cls-3" d="m505.55,423.03c-1.61,1.55-4.03,2.36-7.26,2.43l-1.54-12.48h1.18l.8,6.6c.76-.42,1.35-.84,1.77-1.27.42-.43.74-.96.95-1.58.21-.62.33-1.43.36-2.41v-1.29h1.18v1.27c-.04,1.11-.21,2.05-.49,2.81-.28.76-.71,1.41-1.29,1.96-.58.55-1.36,1.06-2.34,1.54l.45,3.75c2.44-.16,4.29-.91,5.55-2.24,1.26-1.33,1.89-3.35,1.87-6.07l-.02-3.05h1.2l.02,3.03c.01,3.14-.78,5.48-2.4,7.02Z"/>
  </g>
</svg>