<?xml version="1.0" encoding="iso-8859-1"?>
<!-- Generator: Adobe Illustrator 26.5.1, SVG Export Plug-In . SVG Version: 6.00 Build 0)  -->
<svg version="1.1" id="Capa_1" xmlns="http://www.w3.org/2000/svg" xmlns:xlink="http://www.w3.org/1999/xlink" x="0px" y="0px"
	 viewBox="0 0 512 512" style="enable-background:new 0 0 512 512;" xml:space="preserve">
<g>
	<g>
		<path d="M508.778,225.307l-30-30c-2.063-2.062-4.861-3.222-7.778-3.222c-2.918,0-5.716,1.159-7.778,3.222l-29.999,30
			c-4.296,4.296-4.296,11.261,0,15.557c2.148,2.147,4.963,3.222,7.778,3.222s5.631-1.074,7.778-3.222L460,229.643V256
			c0,120.757-98.243,219-219,219S22,376.756,22,256S120.243,37.001,241,37.001c26.03,0,51.606,4.581,76.017,13.616
			c5.699,2.107,12.025-0.8,14.135-6.498c2.108-5.697-0.801-12.025-6.498-14.135C297.79,20.042,269.646,15.001,241,15.001
			c-64.373,0-124.894,25.068-170.413,70.587C25.068,131.107,0,191.627,0,256s25.068,124.894,70.587,170.413
			C116.106,471.931,176.627,497,241,497s124.894-25.068,170.413-70.587C456.932,380.893,482,320.373,482,256v-26.357l11.222,11.222
			c4.297,4.295,11.26,4.295,15.557,0C513.074,236.568,513.074,229.603,508.778,225.307z"/>
		<path d="M385.001,256c0,79.402-64.599,144.001-144.001,144.001c-79.401,0-144-64.599-144-144.001c0-79.401,64.599-144,144-144
			c23.107,0,46.147,5.651,66.632,16.344c5.386,2.812,12.029,0.725,14.842-4.662c2.811-5.386,0.724-12.03-4.662-14.842
			C294.198,96.514,267.637,90,241,90c-91.533,0-166,74.467-166,166s74.467,166.001,166,166.001S407.001,347.533,407.001,256
			c0-18.622-3.104-36.983-9.228-54.574c-1.997-5.737-8.263-8.768-14.005-6.772c-5.737,1.997-8.77,8.268-6.772,14.005
			C382.308,223.918,385.001,239.846,385.001,256z"/>
		<path d="M252,146.001c0-6.075-4.925-11-11-11s-11,4.925-11,11v80c0,6.075,4.925,11,11,11s11-4.925,11-11V146.001z"/>
		<path d="M271,245c-6.075,0-11,4.925-11,11s4.925,11,11,11h30c6.075,0,11-4.925,11-11s-4.925-11-11-11H271z"/>
		<path d="M346,267h5c6.075,0,11-4.925,11-11s-4.925-11-11-11h-5c-6.075,0-11,4.925-11,11S339.925,267,346,267z"/>
		<path d="M131,245c-6.075,0-11,4.925-11,11s4.925,11,11,11h5c6.075,0,11-4.925,11-11s-4.925-11-11-11H131z"/>
		<path d="M241,350c-6.075,0-11,4.925-11,11v5c0,6.075,4.925,11,11,11s11-4.925,11-11v-5C252,354.924,247.075,350,241,350z"/>
	</g>
	<g>
		<g>
			<path style="fill:#045384;" d="M391.998,169.543h-44c-3.42,0-6.646-1.591-8.728-4.305s-2.783-6.241-1.897-9.545
				c4.115-15.342,19.481-33.25,36.221-51.786l2.19-2.429c3.151-3.502,6.382-8.706,3.869-13.606
				c-2.057-4.014-7.211-6.771-11.743-6.271c-5.533,0.607-8.094,6.1-9.269,10.6c-1.532,5.88-7.546,9.401-13.42,7.867
				c-5.879-1.533-9.401-7.542-7.867-13.42c4.007-15.359,14.533-25.422,28.157-26.915c13.634-1.501,27.492,5.95,33.721,18.104
				c6.23,12.158,3.579,26.497-7.095,38.358l-2.217,2.457c-6.556,7.259-16.865,18.675-23.945,28.891h26.022c6.075,0,11,4.925,11,11
				S398.073,169.543,391.998,169.543z"/>
		</g>
		<g>
			<path style="fill:#045384;" d="M471,169.543c-6.075,0-11-4.925-11-11V131.04h-33.002c-3.129,0-6.109-1.332-8.196-3.663
				c-2.087-2.332-3.082-5.441-2.736-8.551l5.495-49.497c0.67-6.038,6.112-10.381,12.146-9.719c6.038,0.67,10.39,6.108,9.719,12.146
				l-4.139,37.283H460V70.543c0-6.075,4.925-11,11-11s11,4.925,11,11v88C482,164.618,477.075,169.543,471,169.543z"/>
		</g>
		<g>
			<path style="fill:#045384;" d="M241,292c-19.851,0-36-16.149-36-36s16.149-36,36-36s36,16.149,36,36S260.851,292,241,292z
				 M241,242c-7.72,0-14,6.28-14,14s6.28,14,14,14s14-6.28,14-14S248.72,242,241,242z"/>
		</g>
	</g>
</g>
<g>
</g>
<g>
</g>
<g>
</g>
<g>
</g>
<g>
</g>
<g>
</g>
<g>
</g>
<g>
</g>
<g>
</g>
<g>
</g>
<g>
</g>
<g>
</g>
<g>
</g>
<g>
</g>
<g>
</g>
</svg>
